<?xml version="1.0" encoding="utf-8"?><!-- Uploaded to: SVG Repo, www.svgrepo.com, Generator: SVG Repo Mixer Tools -->
<svg width="800px" height="800px" viewBox="0 0 64 64" fill="none"
    xmlns="http://www.w3.org/2000/svg">
    <path d="M32,59h-3l-2-2H10v-24h4v18s12.15-3,18,8Z" fill="#f5dd90" />
    <path d="M50,51v-18h4v24h-17s-2,2-2,2h-3c5.85-11,18-8,18-8Z" fill="#274c77" />
    <path d="M32,59c-5.85-11-18-8-18-8V30l6-2v19c6.63,0,12,5.37,12,12Z" fill="#6096ba" />
    <path d="M44,28l6,2v21s-12.15-3-18,8c0-6.63,5.37-12,12-12V28Z" fill="#6096ba" />
    <path
        d="M32,39c0-6.63-5.37-12-12-12v20c6.63,0,12,5.37,12,12,0-6.63,5.37-12,12-12V27c-6.63,0-12,5.37-12,12Z"
        fill="#a3cef1" />
    <circle cx="32" cy="17" r="12" fill="#ffbc0a" />
    <rect height="10" width="2" x="31" y="14" fill="#f5dd90" />
    <rect height="2" width="2" x="31" y="11" fill="#f5dd90" />
</svg>